<svg data-v-0dd9719b="" version="1.0" xmlns="http://www.w3.org/2000/svg" xmlns:xlink="http://www.w3.org/1999/xlink" width="100%" height="100%" viewBox="0 0 340.000000 250.000000" preserveAspectRatio="xMidYMid meet" color-interpolation-filters="sRGB" style="margin: auto;"> <rect data-v-0dd9719b="" x="0" y="0" width="100%" height="100%" fill="#ffffff" fill-opacity="1" class="background"></rect> <rect data-v-0dd9719b="" x="0" y="0" width="100%" height="100%" fill="url(#watermark)" fill-opacity="1" class="watermarklayer"></rect> <g data-v-0dd9719b="" fill="#f1993f" class="icon-text-wrapper icon-svg-group iconsvg" transform="translate(47.48999786376953,96.18874740600586)"><g class="iconsvg-imagesvg" transform="translate(0,0.68634033203125)"><g><rect fill="#f1993f" fill-opacity="0" stroke-width="2" x="0" y="0" width="60" height="56.24982421929931" class="image-rect"></rect> <svg filter="url(#colors1320136707)" x="0" y="0" width="60" height="56.24982421929931" filtersec="colorsf1546487304" class="image-svg-svg primary" style="overflow: visible;"><svg xmlns="http://www.w3.org/2000/svg" viewBox="-0.0000028622696390812052 0 32.00000762939453 30" x="0px" y="0px"><path fill-rule="evenodd" d="M16.876 24.795L18 16.929V5.999a1 1 0 0 0-1-1h-2a1 1 0 0 0-1 1v10.93l1.124 7.866-4.32.864a1.002 1.002 0 0 0-.804.98V28h12v-1.36c0-.475-.338-.887-.803-.98l-4.321-.864zM32 12.84a4.525 4.525 0 0 1-4.03 4.503l-5.86.65-.22-1.987 5.859-.651A2.528 2.528 0 0 0 30 12.84a.992.992 0 0 0-.917-.995l-9.088-.76-.005 6.057-.866 6.063 2.465.493A3.008 3.008 0 0 1 24 26.64V30H8v-3.36a3.008 3.008 0 0 1 2.412-2.942l2.464-.493L12 17v-5.914l-9.083.758A.994.994 0 0 0 2 12.84c0 1.29.968 2.373 2.251 2.515l5.859.65-.22 1.989-5.86-.651A4.525 4.525 0 0 1 0 12.84a3.017 3.017 0 0 1 2.751-2.99L12 9.08V6c0-1.654 1.346-3 3-3h2c1.654 0 3 1.346 3 3l-.003 3.08 9.252.772A3.015 3.015 0 0 1 32 12.84zM9 2h14V0H9v2z"></path></svg></svg> <defs><filter id="colors1320136707"><feColorMatrix type="matrix" values="0 0 0 0 0.859375  0 0 0 0 0.2734375  0 0 0 0 0.23046875  0 0 0 1 0" class="icon-fecolormatrix"></feColorMatrix></filter> <filter id="colorsf1546487304"><feColorMatrix type="matrix" values="0 0 0 0 0.99609375  0 0 0 0 0.99609375  0 0 0 0 0.99609375  0 0 0 1 0" class="icon-fecolormatrix"></feColorMatrix></filter> <filter id="colorsb9788913711"><feColorMatrix type="matrix" values="0 0 0 0 0  0 0 0 0 0  0 0 0 0 0  0 0 0 1 0" class="icon-fecolormatrix"></feColorMatrix></filter></defs></g></g> <g transform="translate(67,0)"><g data-gra="path-name" fill-rule="" class="tp-name iconsvg-namesvg" transform="translate(0,0)"><g transform="scale(1)"><g><path d="M42.28-23.33L42.28-23.33 24.57-23.33Q27.42-8.35 43.95-1.67L43.95-1.67 43.86-1.19Q39.73-0.44 39.02 4.04L39.02 4.04Q26.5-3.56 23.95-22.28L23.95-22.28Q23.51-18.85 22.7-16.02 21.88-13.18 20.26-10.24 18.63-7.29 16.26-4.88 13.89-2.46 10.22-0.15 6.55 2.15 1.76 4.04L1.76 4.04 1.36 3.38Q5.93 0.62 9.14-2.48 12.35-5.58 14.22-9.03 16.08-12.48 17.03-15.84 17.97-19.2 18.37-23.33L18.37-23.33 2.11-23.33 1.76-24.65 18.46-24.65Q18.72-28.26 18.72-38.06L18.72-38.06 26.28-37.35Q26.06-36.25 24.65-36.04L24.65-36.04Q24.48-27.64 24.21-24.65L24.21-24.65 34.32-24.65 37.66-28.74Q41.31-26.02 43.55-24.08L43.55-24.08Q43.33-23.33 42.28-23.33ZM64.2-29.27L59.11-29.27 58.71-30.54 64.64-30.54Q66.58-35.64 67.19-38.14L67.19-38.14 73.83-36.17Q73.34-35.16 71.89-35.33L71.89-35.33Q71.72-34.76 71.43-33.99 71.15-33.22 70.75-32.21 70.36-31.2 70.14-30.54L70.14-30.54 79.1-30.54 81.96-34.45Q85.3-31.82 87.23-29.97L87.23-29.97Q87.06-29.27 85.96-29.27L85.96-29.27 69.65-29.27Q66.84-21.93 65.96-19.78L65.96-19.78 71.02-19.78 71.02-26.72 77.92-26.1Q77.74-25.05 76.25-24.83L76.25-24.83 76.25-19.78 78.27-19.78 80.9-23.29Q83.94-20.87 85.69-19.2L85.69-19.2Q85.52-18.5 84.46-18.5L84.46-18.5 76.25-18.5 76.25-11.73 80.42-11.73 83.14-15.42Q86.26-12.92 88.15-11.16L88.15-11.16Q87.98-10.46 86.88-10.46L86.88-10.46 76.25-10.46 76.25-3.56Q76.25-3.34 75.61-3.01 74.97-2.68 73.92-2.42 72.86-2.15 71.94-2.15L71.94-2.15 71.02-2.15 71.02-10.46 58.62-10.46 58.27-11.73 71.02-11.73 71.02-18.5 65.79-18.5 63.72-16.22 58.84-19.47Q59.63-20.08 60.64-20.57L60.64-20.57Q62.14-23.64 64.2-29.27L64.2-29.27ZM47.99-37.05L47.99-37.05 48.43-37.27Q54.93-35.29 56.69-31.51L56.69-31.51Q57.74-29.22 56.51-27.64L56.51-27.64Q55.37-26.19 53.53-26.94L53.53-26.94Q53.04-27.16 52.6-27.47L52.6-27.47Q51.77-31.82 47.99-37.05ZM56.47-19.86L56.47-19.86 56.47-5.71Q59.15-3.12 63.19-2.18 67.24-1.23 74.62-1.23L74.62-1.23Q82.92-1.23 88.99-1.54L88.99-1.54 88.99-1.01Q87.54-0.7 86.66 0.48 85.78 1.67 85.61 3.3L85.61 3.3 72.99 3.3Q66.18 3.3 62.47 1.63 58.75-0.04 55.81-4.17L55.81-4.17Q54.98-5.36 54.23-4.17L54.23-4.17Q54.14-4 52.4-1.23 50.67 1.54 49.88 3.03L49.88 3.03Q50.05 3.56 49.44 4.04L49.44 4.04 45.97-1.14Q47.55-2.11 51.46-4.66L51.46-4.66 51.46-20.57 46.63-20.57 46.36-21.88 50.76-21.88 53.31-25.18 58.75-20.83Q58.14-20.17 56.47-19.86ZM98.88-26.37L98.88-26.37 98.96-26.41Q104.11-24.87 104.94-22.02L104.94-22.02Q105.51-20.17 104.11-19.03L104.11-19.03Q102.66-17.84 100.94-18.94L100.94-18.94Q100.55-19.2 100.2-19.56L100.2-19.56Q100.46-22.72 98.66-26.06L98.66-26.06Q95.23-20.79 91.36-17.67L91.36-17.67 90.88-18.02Q93.43-21.88 95.49-27.86 97.56-33.84 98.22-38.58L98.22-38.58 105.12-36.61Q104.9-35.68 103.36-35.55L103.36-35.55 103.32-35.38Q108.68-32.96 109.86-29.49L109.86-29.49Q110.61-27.2 109.38-25.93L109.38-25.93Q108.11-24.7 106.39-25.84L106.39-25.84Q106.22-25.97 106-26.15L106-26.15Q105.6-29.62 102.88-34.19L102.88-34.19Q101.25-30.15 98.88-26.37ZM103.36-16.39L106.13-19.03 110.61-14.59Q110.08-14.06 108.76-14.02L108.76-14.02Q107.01-11.91 102-6.64L102-6.64Q105.82-3.91 106.04-0.7L106.04-0.7Q106.17 1.45 104.63 2.2L104.63 2.2Q103.32 2.9 101.65 1.8L101.65 1.8Q100.85-0.92 98.77-4.02 96.68-7.12 94.31-9.49L94.31-9.49 94.75-9.8Q98.35-8.88 100.77-7.43L100.77-7.43Q102.7-12.79 103.45-15.07L103.45-15.07 93.25-15.07 92.86-16.39 103.36-16.39ZM118.65-23.95L118.65-23.95 125.11-22.59Q124.89-21.67 123.44-21.67L123.44-21.67Q123.13-12.96 122.56-10.02L122.56-10.02Q122.26-8.35 121.77-6.99L121.77-6.99Q129.73-5.45 132.41-1.41L132.41-1.41Q133.95 0.92 132.93 2.68L132.93 2.68Q132.06 4.26 130.08 3.74L130.08 3.74Q129.64 3.65 129.16 3.38L129.16 3.38Q128.1 1.14 125.95-1.47 123.79-4.09 121.46-6.11L121.46-6.11Q119.97-2.42 116.52-0.04 113.07 2.33 106.48 3.87L106.48 3.87 106.13 3.12Q107.97 2.37 109.49 1.6 111.01 0.83 112.21-0.13 113.42-1.1 114.32-1.98 115.22-2.86 115.91-4.11 116.59-5.36 117.05-6.42 117.51-7.47 117.82-9.12 118.13-10.77 118.28-12.02 118.43-13.27 118.52-15.36 118.61-17.45 118.63-19.01 118.65-20.57 118.65-23.12L118.65-23.12Q118.65-23.69 118.65-23.95ZM108.63-34.45L126.34-34.45 129.16-38.06Q132.32-35.64 134.25-33.93L134.25-33.93Q134.08-33.22 132.98-33.22L132.98-33.22 123.4-33.22Q120.89-28.7 119.09-26.5L119.09-26.5 126.04-26.5 128.19-28.78 132.63-25.44Q132.19-24.83 131.09-24.65L131.09-24.65 131.09-8.17Q131.04-7.87 129.68-7.38 128.32-6.9 127.22-6.9L127.22-6.9 126.43-6.9 126.43-25.22 115.44-25.22 115.44-7.95Q115.44-7.56 114.1-6.97 112.76-6.37 111.4-6.37L111.4-6.37 110.7-6.37 110.7-28.52 115.66-26.5 117.47-26.5Q117.51-27.6 117.6-30.06 117.69-32.52 117.73-33.22L117.73-33.22 108.98-33.22 108.63-34.45ZM155.3-28.34L154.95-29.62 162.51-29.62 162.51-37.88 169.06-37.35Q168.97-36.39 167.61-36.17L167.61-36.17 167.61-29.62 170.73-29.62 173.58-33.31Q176.7-30.81 178.64-29.09L178.64-29.09Q178.42-28.34 177.45-28.34L177.45-28.34 155.3-28.34ZM144.14-28.83L144.14-28.83 144.67-29.14Q149.19-26.76 149.37-23.69L149.37-23.69Q149.46-21.84 148.1-20.96L148.1-20.96Q146.78-20.13 145.72-21.4L145.72-21.4Q145.59-21.53 145.46-21.75L145.46-21.75Q145.68-26.15 144.14-28.83ZM149.85-30.32L143.66-30.32 143.66-19.16Q149.46-19.69 149.85-19.73L149.85-19.73 149.85-30.32ZM156.62-19.73L154.25-18.94 154.25-2.59Q154.25 0.18 153.19 1.43 152.14 2.68 148.62 3.03L148.62 3.03Q148.4 0.48 147.79-0.31L147.79-0.31Q146.87-1.45 144.58-1.85L144.58-1.85 144.58-2.46Q148.18-2.2 148.97-2.2L148.97-2.2Q149.85-2.2 149.85-3.12L149.85-3.12 149.85-17.58Q146.25-16.48 143.66-15.78L143.66-15.78Q143.61-12.74 143.37-10.46 143.13-8.17 142.47-5.43 141.81-2.68 140.36-0.29 138.91 2.11 136.71 4.04L136.71 4.04 136.14 3.65Q138.03 0.09 138.67-4.33 139.31-8.75 139.35-14.59L139.35-14.59 138.12-14.28Q137.68-13.36 136.76-13.18L136.76-13.18 136.14-18.68Q136.63-18.68 139.35-18.85L139.35-18.85 139.35-33.49 143.92-31.77Q144.23-35.07 144.45-38.23L144.45-38.23 151.48-36.87Q151.22-35.77 149.68-35.73L149.68-35.73Q148.14-34.06 145.5-31.6L145.5-31.6 149.41-31.6 151.48-34.01 156.01-30.5Q155.43-29.84 154.25-29.66L154.25-29.66 154.25-20.13 156.53-20.35 156.62-19.73ZM148.01-14.15L148.01-14.15 148.01-5.14Q148.01-4.88 147.19-4.5 146.38-4.13 145.63-4.13L145.63-4.13 144.98-4.13 144.98-15.38 148.97-14.99Q148.84-14.33 148.01-14.15ZM177.41-8.61L177.89-8.61 178.02-2.15Q178.86-1.71 179.12-1.27 179.38-0.83 179.38-0.04L179.38-0.04Q179.38 2.99 173.58 2.99L173.58 2.99 171.52 2.99Q169.06 2.99 168.33 2.09 167.61 1.19 167.61-1.32L167.61-1.32 167.61-21.53 163.13-21.53 163.13-13.32Q163.13-11.21 162.95-9.56 162.77-7.91 162.14-5.82 161.5-3.74 160.38-2.11 159.26-0.48 157.21 1.19 155.17 2.86 152.36 4.09L152.36 4.09 151.96 3.65Q155.79 0.4 157.06-3.67 158.33-7.73 158.33-13.27L158.33-13.27 158.33-25.36 163.87-22.85 167.12-22.85 169.58-25.71 174.33-21.8Q173.85-21.23 172.66-21.05L172.66-21.05 172.66-2.68Q172.66-1.93 173.28-1.93L173.28-1.93 174.11-1.93Q174.73-1.93 174.95-1.98L174.95-1.98Q175.43-1.98 175.65-2.46L175.65-2.46Q176.13-3.43 177.41-8.61L177.41-8.61Z" transform="translate(-1.3600000143051147, 38.58000183105469)"></path></g> <!----> <!----> <!----> <!----> <!----> <!----> <!----></g></g> <g data-gra="path-slogan" fill-rule="" class="tp-slogan iconsvg-slogansvg" fill="#f1993f" transform="translate(29.81000518798828,48.67000198364258)"><!----> <!----> <g transform="scale(1, 1)"><g transform="scale(1)"><path d="M4.41 0L0.94 0L0.94-8.58L4.45-8.58Q7.92-8.39 8.06-4.41L8.06-4.41Q7.88-0.09 4.41 0L4.41 0ZM4.27-7.64L2.11-7.64L2.11-0.98L4.36-0.98Q6.80-1.13 6.89-4.31L6.89-4.31Q6.84-7.55 4.27-7.64L4.27-7.64ZM15.19 0L14.34-2.48L10.88-2.48L9.98 0L8.81 0L12.05-8.58L13.36-8.58L16.45 0L15.19 0ZM12.61-7.31L11.25-3.52L13.92-3.52L12.66-7.31L12.61-7.31ZM17.48-8.58L18.66-8.58L18.66-1.03L23.02-1.03L23.02 0L17.48 0L17.48-8.58ZM24.33-8.58L25.50-8.58L25.50 0L24.33 0L24.33-8.58ZM33.14 0L32.30-2.48L28.83-2.48L27.94 0L26.77 0L30-8.58L31.31-8.58L34.41 0L33.14 0ZM30.56-7.31L29.20-3.52L31.88-3.52L30.61-7.31L30.56-7.31ZM36.84-8.58L41.16-1.64L41.16-8.58L42.28-8.58L42.28 0L40.97 0L36.61-6.94L36.56-6.94L36.56 0L35.44 0L35.44-8.58L36.84-8.58ZM48.80-8.58L53.11-1.64L53.11-8.58L54.23-8.58L54.23 0L52.92 0L48.56-6.94L48.52-6.94L48.52 0L47.39 0L47.39-8.58L48.80-8.58ZM61.69 0L60.84-2.48L57.38-2.48L56.48 0L55.31 0L58.55-8.58L59.86-8.58L62.95 0L61.69 0ZM59.11-7.31L57.75-3.52L60.42-3.52L59.16-7.31L59.11-7.31ZM64.64-8.58L67.08-1.27L69.56-8.58L70.88-8.58L67.73 0L66.47 0L63.33-8.58L64.64-8.58ZM72.14-8.58L73.31-8.58L73.31 0L72.14 0L72.14-8.58ZM81.70-3.61L79.08-3.61L79.08-4.59L82.83-4.59L82.83 0L82.08 0L81.80-1.08Q80.81 0.09 78.98 0.14L78.98 0.14Q77.25 0.14 76.31-0.75L76.31-0.75Q74.91-2.06 74.95-4.36L74.95-4.36Q75.28-8.63 79.03-8.81L79.03-8.81Q82.22-8.63 82.69-6L82.69-6L81.56-6Q81.09-7.78 78.98-7.83L78.98-7.83Q76.31-7.64 76.17-4.31L76.17-4.31Q76.17-0.75 79.03-0.75L79.03-0.75Q80.06-0.75 80.81-1.31L80.81-1.31Q81.75-2.06 81.70-3.61L81.70-3.61ZM90.28 0L89.44-2.48L85.97-2.48L85.08 0L83.91 0L87.14-8.58L88.45-8.58L91.55 0L90.28 0ZM87.70-7.31L86.34-3.52L89.02-3.52L87.75-7.31L87.70-7.31ZM94.78-7.59L91.88-7.59L91.88-8.58L98.81-8.58L98.81-7.59L95.91-7.59L95.91 0L94.78 0L94.78-7.59ZM100.03-8.58L101.20-8.58L101.20 0L100.03 0L100.03-8.58ZM109.97-4.27L109.97-4.27Q109.78-7.64 106.97-7.83L106.97-7.83Q104.11-7.69 103.97-4.27L103.97-4.27Q104.11-0.94 106.97-0.80L106.97-0.80Q109.78-0.98 109.97-4.27ZM111.14-4.27L111.14-4.27Q110.86 0 106.97 0.14L106.97 0.14Q103.03 0 102.75-4.27L102.75-4.27Q102.98-8.72 106.97-8.81L106.97-8.81Q110.86-8.67 111.14-4.27ZM113.91-8.58L118.22-1.64L118.22-8.58L119.34-8.58L119.34 0L118.03 0L113.67-6.94L113.63-6.94L113.63 0L112.50 0L112.50-8.58L113.91-8.58Z" transform="translate(-0.9375, 8.8125)"></path></g></g></g></g></g><defs v-gra="od"></defs></svg>